<?xml version="1.0" standalone="no"?>
<!DOCTYPE svg PUBLIC "-//W3C//DTD SVG 20010904//EN"
 "http://www.w3.org/TR/2001/REC-SVG-20010904/DTD/svg10.dtd">
<svg version="1.0" xmlns="http://www.w3.org/2000/svg"
 width="512.000000pt" height="512.000000pt" viewBox="0 0 512.000000 512.000000"
 preserveAspectRatio="xMidYMid meet">
<metadata>
Created by potrace 1.11, written by Peter Selinger 2001-2013
</metadata>
<g transform="translate(0.000000,512.000000) scale(0.100000,-0.100000)"
fill="#000000" stroke="none">
<path d="M2248 5045 c-2 -1 -32 -6 -68 -9 -36 -4 -72 -9 -80 -11 -8 -2 -33 -6
-55 -10 -22 -3 -90 -19 -151 -35 -569 -151 -1104 -559 -1451 -1105 -182 -287
-321 -653 -358 -945 -4 -30 -9 -64 -12 -75 -9 -38 -11 -371 -3 -445 51 -456
249 -865 585 -1205 83 -84 227 -207 316 -269 46 -32 75 -48 63 -35 -11 13 -37
42 -57 65 -63 69 -146 185 -202 280 -181 305 -265 628 -259 999 2 153 4 174
30 330 118 714 588 1418 1222 1832 61 41 120 77 130 80 9 4 37 19 62 33 145
85 469 195 635 215 186 23 392 24 485 4 19 -4 51 -10 70 -12 220 -27 518 -163
765 -348 l80 -61 -80 78 c-373 359 -799 575 -1259 639 -78 10 -398 19 -408 10z"/>
<path d="M3535 4853 c6 -5 46 -36 90 -68 95 -71 319 -292 396 -390 74 -95 129
-173 129 -184 0 -5 7 -14 15 -21 13 -10 57 -86 120 -205 110 -208 205 -518
240 -785 22 -166 22 -469 -1 -595 -2 -11 -5 -36 -8 -55 -38 -281 -166 -631
-326 -890 -283 -458 -723 -816 -1215 -990 -49 -17 -101 -35 -115 -40 -46 -17
-259 -67 -320 -75 -234 -33 -493 -37 -680 -11 -137 19 -143 20 -280 51 -197
45 -475 164 -679 290 -86 53 -228 154 -261 186 -8 8 -44 39 -80 69 -58 50 -62
52 -40 20 152 -222 388 -464 584 -601 27 -19 65 -45 85 -59 163 -114 462 -256
664 -314 103 -30 296 -73 362 -81 28 -3 82 -9 120 -14 72 -9 462 -6 525 3 137
22 204 34 270 49 381 89 750 273 1045 520 82 68 258 248 326 332 241 298 436
704 503 1045 45 232 51 289 51 530 0 201 -4 247 -31 410 -68 409 -247 809
-512 1145 -79 99 -291 309 -393 388 -94 72 -216 157 -290 199 -99 58 -321 164
-294 141z"/>
<path d="M2519 4163 c-2 -17 -5 -25 -12 -43 -6 -14 -115 -326 -304 -870 -47
-135 -111 -319 -143 -410 -77 -219 -206 -588 -292 -835 -38 -110 -73 -211 -78
-225 -4 -14 -35 -103 -69 -198 -33 -94 -59 -172 -57 -172 3 0 93 68 457 345
421 320 458 347 471 339 12 -8 237 -176 268 -201 26 -21 149 -114 340 -258
102 -77 187 -142 190 -145 12 -13 110 -81 110 -76 0 3 -6 25 -14 48 -8 24 -38
117 -66 208 -74 235 -110 349 -180 565 -34 105 -65 204 -70 220 -4 17 -40 131
-80 255 -188 589 -222 696 -269 850 -29 91 -56 173 -61 182 -6 10 -10 23 -10
30 0 7 -21 76 -46 153 -25 77 -47 147 -49 155 -8 33 -34 94 -36 83z"/>
</g>
</svg>
