<?xml version="1.0" encoding="utf-8"?>
<!-- Generator: Adobe Illustrator 16.0.4, SVG Export Plug-In . SVG Version: 6.00 Build 0)  -->
<!DOCTYPE svg PUBLIC "-//W3C//DTD SVG 1.1//EN" "http://www.w3.org/Graphics/SVG/1.1/DTD/svg11.dtd">
<svg version="1.1" id="Layer_1" xmlns="http://www.w3.org/2000/svg" xmlns:xlink="http://www.w3.org/1999/xlink" x="0px" y="0px"
	 width="153.235px" height="34.735px" viewBox="1.818 0 153.235 34.735" enable-background="new 1.818 0 153.235 34.735"
	 xml:space="preserve">
<g>
	<path fill="#237CB7" d="M17.829,0C-28.355,19.904,35.95,48.729,77.322,26.971C36.23,43.041-15.603,18.354,17.829,0z"/>
	<g>
		<path fill="#237CB7" d="M21.789,22.916L26.127,0.76l7.074,16.018L40.529,0.76l3.897,22.156h-3.189l-1.991-12.438l-6.097,13.386
			l-5.925-13.399l-2.216,12.452H21.789L21.789,22.916z"/>
		<path fill="#237CB7" d="M60.163,5.23h-8.263v4.951h8.022v2.923h-8.022v6.887h8.263v2.922H48.791V2.308h11.372V5.23z"/>
		<path fill="#237CB7" d="M71.223,14.135l6.379,8.781h-3.806l-5.882-8.436h-0.56v8.436h-3.11V2.308h3.644
			c2.726,0,4.691,0.51,5.899,1.534c1.333,1.139,2.001,2.644,2.001,4.509c0,1.461-0.417,2.715-1.257,3.763
			C73.698,13.167,72.596,13.838,71.223,14.135z M67.356,11.771h0.987c2.945,0,4.417-1.125,4.417-3.377
			c0-2.11-1.432-3.163-4.295-3.163h-1.109V11.771z"/>
		<path fill="#237CB7" d="M83.81,2.307v20.609H80.7V2.307H83.81z"/>
		<path fill="#237CB7" d="M88.764,22.916V2.307h4.321c2.074,0,3.71,0.205,4.911,0.613c1.29,0.401,2.459,1.083,3.509,2.041
			c2.131,1.939,3.193,4.49,3.193,7.65c0,3.167-1.109,5.731-3.325,7.686c-1.108,0.978-2.277,1.659-3.495,2.042
			c-1.139,0.385-2.752,0.576-4.846,0.576h-4.269V22.916L88.764,22.916z M91.871,19.994h1.401c1.396,0,2.558-0.148,3.482-0.441
			c0.926-0.312,1.762-0.807,2.513-1.481c1.529-1.396,2.293-3.216,2.293-5.457c0-2.258-0.757-4.095-2.268-5.5
			c-1.363-1.254-3.368-1.883-6.021-1.883H91.87L91.871,19.994L91.871,19.994z"/>
		<path fill="#237CB7" d="M111.72,2.307v20.609h-3.109V2.307H111.72z"/>
		<path fill="#237CB7" d="M128.777,17.91h-8.821l-2.298,5.002h-3.351l10.198-21.901l9.838,21.901h-3.403L128.777,17.91z
			 M127.51,14.987l-3.058-7.008l-3.203,7.008H127.51z"/>
		<path fill="#237CB7" d="M136.916,22.916V0.905l15.026,15.721V2.307h3.11V24.17L140.028,8.489v14.427H136.916L136.916,22.916z"/>
	</g>
</g>
</svg>
