<?xml version="1.0" encoding="utf-8"?>
<!-- Generator: Adobe Illustrator 16.0.4, SVG Export Plug-In . SVG Version: 6.00 Build 0)  -->
<!DOCTYPE svg PUBLIC "-//W3C//DTD SVG 1.1//EN" "http://www.w3.org/Graphics/SVG/1.1/DTD/svg11.dtd">
<svg version="1.1" id="Layer_1" xmlns="http://www.w3.org/2000/svg" xmlns:xlink="http://www.w3.org/1999/xlink" x="0px" y="0px"
	 width="118.384px" height="28.105px" viewBox="-0.001 0 118.384 28.105" enable-background="new -0.001 0 118.384 28.105"
	 xml:space="preserve">
<g>
	<path fill="#4E9D2D" d="M12.954,28.105C-24.414,11.998,27.616-11.321,61.092,6.283C27.842-6.719-14.1,13.255,12.954,28.105z"/>
	<g>
		<path fill="#4E9D2D" d="M16.816,15.951h7.191V9.428h2.52V26.1h-2.517v-7.784h-7.191V26.1h-2.517V9.428h2.517v6.522H16.816z"/>
		<path fill="#4E9D2D" d="M29.69,17.689c0-2.346,0.86-4.362,2.581-6.048c1.712-1.683,3.771-2.527,6.176-2.527
			c2.375,0,4.413,0.85,6.112,2.549c1.708,1.699,2.56,3.739,2.56,6.123c0,2.397-0.855,4.431-2.57,6.101
			c-1.721,1.678-3.798,2.518-6.229,2.518c-2.152,0-4.085-0.746-5.798-2.234C30.633,22.521,29.69,20.361,29.69,17.689z
			 M32.226,17.716c0,1.84,0.621,3.356,1.859,4.543c1.23,1.188,2.653,1.779,4.267,1.779c1.75,0,3.226-0.604,4.426-1.814
			c1.201-1.222,1.803-2.71,1.803-4.466c0-1.776-0.594-3.265-1.782-4.466c-1.18-1.209-2.642-1.813-4.384-1.813
			c-1.734,0-3.201,0.604-4.395,1.813C32.825,14.486,32.226,15.961,32.226,17.716z"/>
		<path fill="#4E9D2D" d="M55.929,18.995l5.164,7.105h-3.078l-4.762-6.825h-0.453V26.1h-2.517V9.428h2.948
			c2.203,0,3.795,0.413,4.772,1.241c1.079,0.922,1.619,2.139,1.619,3.649c0,1.18-0.338,2.195-1.015,3.047
			C57.932,18.214,57.04,18.758,55.929,18.995z M52.799,17.085h0.799c2.383,0,3.574-0.911,3.574-2.732c0-1.707-1.158-2.56-3.478-2.56
			h-0.895V17.085z"/>
		<path fill="#4E9D2D" d="M66.114,9.428V26.1h-2.518V9.428H66.114z"/>
		<path fill="#4E9D2D" d="M73.002,23.735h8.001V26.1h-12.14l8.188-14.307h-6.848V9.428h10.984L73.002,23.735z"/>
		<path fill="#4E9D2D" d="M83.113,17.689c0-2.346,0.86-4.362,2.581-6.048c1.713-1.683,3.771-2.527,6.176-2.527
			c2.376,0,4.413,0.85,6.112,2.549c1.707,1.699,2.56,3.739,2.56,6.123c0,2.397-0.855,4.431-2.57,6.101
			c-1.721,1.678-3.798,2.518-6.229,2.518c-2.151,0-4.085-0.746-5.798-2.234C84.053,22.521,83.113,20.361,83.113,17.689z
			 M85.649,17.716c0,1.84,0.617,3.356,1.855,4.543c1.233,1.188,2.652,1.779,4.267,1.779c1.747,0,3.226-0.604,4.427-1.814
			C97.401,21.003,98,19.514,98,17.759c0-1.776-0.594-3.265-1.781-4.466c-1.18-1.209-2.643-1.813-4.385-1.813
			c-1.732,0-3.197,0.604-4.394,1.813C86.248,14.486,85.649,15.961,85.649,17.716z"/>
		<path fill="#4E9D2D" d="M103.706,26.1V8.293l12.16,12.72V9.428h2.518v17.689L106.225,14.43V26.1H103.706z"/>
	</g>
</g>
</svg>
