<?xml version="1.0" encoding="utf-8"?>
<!-- Generator: Adobe Illustrator 18.1.1, SVG Export Plug-In . SVG Version: 6.00 Build 0)  -->
<svg version="1.1" id="Layer_1" xmlns="http://www.w3.org/2000/svg" xmlns:xlink="http://www.w3.org/1999/xlink" x="0px" y="0px"
	 viewBox="0 0 217.5 63.8" enable-background="new 0 0 217.5 63.8" xml:space="preserve">
<g>
	<g>
		<path fill="#388C72" d="M36.6,17.7v5.2c-2.5-2.1-5.1-3.2-7.8-3.2c-3,0-5.5,1.1-7.5,3.2c-2,2.1-3.1,4.7-3.1,7.8c0,3,1,5.6,3.1,7.7
			c2,2.1,4.5,3.1,7.5,3.1c1.5,0,2.8-0.2,3.9-0.7c0.6-0.2,1.2-0.6,1.9-1c0.6-0.4,1.3-0.9,2-1.5v5.3c-2.5,1.4-5.1,2.1-7.9,2.1
			c-4.1,0-7.6-1.4-10.6-4.3c-2.9-2.9-4.4-6.4-4.4-10.5c0-3.7,1.2-7,3.6-9.9c3-3.5,6.9-5.3,11.6-5.3C31.7,15.6,34.2,16.3,36.6,17.7z"
			/>
		<path fill="#388C72" d="M40.5,30.5c0-4.1,1.5-7.6,4.5-10.5c3-2.9,6.5-4.4,10.7-4.4c4.1,0,7.6,1.5,10.6,4.4c3,2.9,4.4,6.5,4.4,10.6
			c0,4.2-1.5,7.7-4.4,10.6c-3,2.9-6.6,4.4-10.8,4.4c-3.7,0-7.1-1.3-10-3.9C42.1,38.9,40.5,35.1,40.5,30.5z M44.9,30.6
			c0,3.2,1.1,5.8,3.2,7.9c2.1,2.1,4.6,3.1,7.4,3.1c3,0,5.6-1,7.7-3.1c2.1-2.1,3.1-4.7,3.1-7.7c0-3.1-1-5.7-3.1-7.7
			c-2-2.1-4.6-3.1-7.6-3.1c-3,0-5.5,1-7.6,3.1C45.9,25,44.9,27.5,44.9,30.6z"/>
		<path fill="#388C72" d="M75.1,45.1L81.2,14l9.9,22.5L101.3,14l5.5,31.1h-4.5l-2.8-17.5L91,46.4l-8.3-18.8l-3.1,17.5H75.1z"/>
		<path fill="#388C72" d="M117.3,33.4v11.7h-4.4V16.2h4.9c2.4,0,4.2,0.2,5.5,0.5c1.2,0.3,2.3,1,3.3,1.9c1.7,1.6,2.5,3.7,2.5,6.1
			c0,2.6-0.9,4.7-2.7,6.3c-1.8,1.5-4.2,2.3-7.2,2.3H117.3z M117.3,29.3h1.6c4,0,6-1.5,6-4.6c0-3-2.1-4.5-6.2-4.5h-1.4V29.3z"/>
		<path fill="#388C72" d="M148.4,38.1h-12.4l-3.2,7h-4.7l14.3-30.7l13.8,30.7h-4.8L148.4,38.1z M146.7,34l-4.3-9.8l-4.5,9.8H146.7z"
			/>
		<path fill="#388C72" d="M176.2,20.5l-3.5,2.1c-0.7-1.1-1.3-1.9-1.9-2.2c-0.6-0.4-1.4-0.6-2.4-0.6c-1.2,0-2.2,0.3-3,1
			c-0.8,0.7-1.2,1.5-1.2,2.6c0,1.4,1,2.5,3.1,3.4l2.9,1.2c2.3,0.9,4.1,2.1,5.1,3.5c1.1,1.4,1.6,3,1.6,5c0,2.7-0.9,4.9-2.7,6.6
			c-1.8,1.8-4,2.6-6.6,2.6c-2.5,0-4.6-0.7-6.2-2.2c-1.6-1.5-2.6-3.6-3-6.3l4.4-1c0.2,1.7,0.5,2.9,1,3.5c0.9,1.2,2.2,1.9,3.9,1.9
			c1.4,0,2.5-0.5,3.4-1.4c0.9-0.9,1.3-2.1,1.3-3.5c0-0.6-0.1-1.1-0.2-1.5c-0.2-0.5-0.4-0.9-0.7-1.3c-0.3-0.4-0.8-0.8-1.3-1.1
			s-1.1-0.7-1.9-1l-2.8-1.2c-4-1.7-5.9-4.1-5.9-7.3c0-2.2,0.8-4,2.5-5.4c1.7-1.5,3.7-2.2,6.2-2.2C171.7,15.6,174.3,17.2,176.2,20.5z
			"/>
		<path fill="#388C72" d="M198.5,20.5l-3.5,2.1c-0.7-1.1-1.3-1.9-1.9-2.2c-0.6-0.4-1.4-0.6-2.4-0.6c-1.2,0-2.2,0.3-3,1
			c-0.8,0.7-1.2,1.5-1.2,2.6c0,1.4,1,2.5,3.1,3.4l2.9,1.2c2.3,0.9,4.1,2.1,5.1,3.5c1.1,1.4,1.6,3,1.6,5c0,2.7-0.9,4.9-2.7,6.6
			c-1.8,1.8-4,2.6-6.6,2.6c-2.5,0-4.6-0.7-6.2-2.2c-1.6-1.5-2.6-3.6-3-6.3l4.4-1c0.2,1.7,0.5,2.9,1,3.5c0.9,1.2,2.2,1.9,3.9,1.9
			c1.4,0,2.5-0.5,3.4-1.4c0.9-0.9,1.3-2.1,1.3-3.5c0-0.6-0.1-1.1-0.2-1.5c-0.2-0.5-0.4-0.9-0.7-1.3c-0.3-0.4-0.8-0.8-1.3-1.1
			c-0.5-0.3-1.1-0.7-1.9-1l-2.8-1.2c-4-1.7-5.9-4.1-5.9-7.3c0-2.2,0.8-4,2.5-5.4c1.7-1.5,3.7-2.2,6.2-2.2
			C194,15.6,196.6,17.2,198.5,20.5z"/>
	</g>
	<path fill="#247CB8" d="M10.4,21.2C-16.1,44,48.1,60.8,99.5,61.4C27,62-22.5,39.9,10.4,21.2z"/>
	<path fill="#4D9C45" d="M207.1,40.2C233.6,17.4,169.5,0.6,118,0C190.5-0.6,240.1,21.5,207.1,40.2z"/>
	<g>
		<g>
			<path stroke="#010101" stroke-width="4.325930e-02" d="M132.5,60.2c-0.6,0-1.1-0.1-1.5-0.4c-0.4-0.2-0.8-0.5-1.1-0.9
				c-0.6-0.7-0.9-1.5-0.9-2.3c0-1.2,0.5-2.3,1.4-3.1c0.9-0.9,2-1.3,3.2-1.3c0.7,0,1.2,0.1,1.7,0.3c0.5,0.2,0.8,0.5,1.1,0.9
				c0.3,0.4,0.5,0.7,0.6,1.2c0.1,0.4,0.2,0.8,0.2,1.2c0,1.1-0.4,2.1-1.2,3C135.2,59.7,134,60.1,132.5,60.2z M132.7,58.8
				c0.1,0,0.2,0,0.3-0.1c0.2,0,0.3-0.2,0.5-0.4c0.1-0.1,0.2-0.3,0.3-0.4c0.1-0.2,0.2-0.4,0.2-0.6c0.1-0.5,0.2-1.1,0.3-1.9
				c0-0.5,0-1-0.1-1.4c-0.1-0.4-0.3-0.6-0.7-0.6c-0.3,0-0.6,0.1-0.8,0.3c-0.2,0.2-0.4,0.5-0.6,0.8c-0.3,0.7-0.4,1.4-0.4,2.1
				c0,0.6,0.1,1.1,0.2,1.5C132.1,58.6,132.4,58.8,132.7,58.8z"/>
			<path stroke="#010101" stroke-width="4.356369e-02" d="M141.7,53.1c0.4-0.3,0.7-0.5,1.1-0.8c0.4-0.2,0.8-0.3,1.3-0.3
				c1.4,0,2.1,1,2.1,3.1c0,1.6-0.5,2.8-1.3,3.7c-0.8,0.9-1.6,1.3-2.5,1.3c-0.7,0-1.4-0.3-1.9-0.8l-0.8,4.5H137l2.2-11.6h2.7
				L141.7,53.1z M142.6,53.7c-0.2,0-0.3,0.1-0.5,0.2c-0.2,0.1-0.4,0.4-0.6,0.7c-0.4,0.7-0.6,1.8-0.7,3.3c0.2,0.5,0.5,0.7,1,0.7
				c0.2,0,0.4-0.1,0.6-0.3c0.2-0.2,0.3-0.4,0.5-0.7c0.3-0.6,0.5-1.4,0.5-2.4C143.4,54.2,143.2,53.7,142.6,53.7z"/>
			<path stroke="#010101" stroke-width="4.325930e-02" d="M153.9,58.9c-0.5,0.3-1.1,0.6-1.8,0.8c-0.7,0.2-1.4,0.4-2.1,0.4
				c-0.5,0-0.9-0.1-1.2-0.4c-0.3-0.2-0.6-0.5-0.8-0.8c-0.1-0.2-0.2-0.3-0.3-0.5c-0.1-0.2-0.1-0.3-0.2-0.5c0-0.2-0.1-0.3-0.1-0.5
				c0-0.1,0-0.3,0-0.4c0-0.9,0.2-1.7,0.5-2.3c0.2-0.3,0.3-0.6,0.5-0.9c0.2-0.3,0.4-0.5,0.6-0.7c0.5-0.4,1-0.7,1.5-0.9
				c0.5-0.2,1-0.3,1.5-0.3c0.8,0,1.4,0.2,1.9,0.5c0.5,0.3,0.8,0.8,0.8,1.6c0,0.4-0.1,0.8-0.4,1.1c-0.3,0.3-0.6,0.6-1.1,0.8
				c-0.9,0.4-1.9,0.7-3.1,0.6c0,0.1,0,0.2,0,0.4c0,0.2,0,0.4,0.1,0.6c0.1,0.2,0.2,0.3,0.4,0.5c0.2,0.2,0.4,0.2,0.8,0.2
				c0.3,0,0.7-0.1,1-0.2c0.3-0.1,0.6-0.3,0.9-0.4L153.9,58.9z M151.9,53.4c-0.4,0-0.8,0.2-1,0.6c-0.2,0.4-0.4,0.8-0.5,1.4
				c1.5,0,2.2-0.4,2.3-1.2c0-0.2,0-0.4-0.2-0.6C152.3,53.5,152.1,53.4,151.9,53.4z"/>
			<path stroke="#010101" stroke-width="4.359928e-02" d="M158.8,53.6L158.8,53.6c0.5-0.5,0.9-0.9,1.4-1.2c0.5-0.3,1-0.4,1.4-0.4
				c1.1,0,1.7,0.6,1.7,1.7c0,0.4,0,0.8-0.1,1.3l-0.9,5h-2.7l0.9-4.9c0-0.1,0-0.3,0-0.4c0-0.3-0.1-0.5-0.2-0.6
				c-0.1-0.1-0.2-0.1-0.3-0.1c-0.2,0-0.5,0.1-0.6,0.2c-0.2,0.2-0.4,0.4-0.5,0.6c-0.3,0.5-0.4,1.1-0.5,1.7l-0.6,3.4H155l1.4-7.7h2.7
				L158.8,53.6z"/>
		</g>
		<g>
			<path fill="#FFFFFF" stroke="#010101" stroke-width="0.3317" d="M131.8,59.4c-0.6,0-1.1-0.1-1.5-0.4c-0.4-0.2-0.8-0.5-1.1-0.9
				c-0.6-0.7-0.9-1.5-0.9-2.3c0-1.2,0.5-2.3,1.4-3.1c0.9-0.9,1.9-1.3,3.2-1.3c0.7,0,1.2,0.1,1.7,0.3c0.5,0.2,0.8,0.5,1.1,0.9
				c0.3,0.4,0.5,0.7,0.6,1.2c0.1,0.4,0.2,0.8,0.2,1.2c0,1.1-0.4,2.1-1.2,3C134.6,58.9,133.4,59.4,131.8,59.4z M132.1,58.1
				c0.1,0,0.2,0,0.3-0.1c0.2,0,0.3-0.2,0.5-0.4c0.1-0.1,0.2-0.3,0.3-0.4c0.1-0.2,0.2-0.4,0.2-0.6c0.2-0.5,0.2-1.1,0.3-1.9
				c0-0.5,0-1-0.1-1.4c-0.1-0.4-0.3-0.6-0.7-0.6c-0.3,0-0.6,0.1-0.8,0.3c-0.2,0.2-0.4,0.5-0.6,0.8c-0.3,0.7-0.4,1.4-0.4,2.1
				c0,0.6,0.1,1.1,0.2,1.5C131.5,57.9,131.7,58.1,132.1,58.1z"/>
			<path fill="#FFFFFF" stroke="#010101" stroke-width="0.3317" d="M141.1,52.4c0.3-0.3,0.7-0.5,1.1-0.7c0.4-0.2,0.8-0.3,1.3-0.3
				c1.4,0,2.1,1,2.1,3.1c0,1.6-0.5,2.8-1.3,3.7c-0.8,0.9-1.6,1.3-2.5,1.3c-0.7,0-1.4-0.3-1.9-0.8l-0.8,4.4h-2.8l2.2-11.5h2.7
				L141.1,52.4z M142,53.1c-0.2,0-0.3,0.1-0.5,0.2c-0.2,0.1-0.4,0.4-0.5,0.7c-0.4,0.7-0.6,1.7-0.7,3.3c0.2,0.5,0.5,0.7,1,0.7
				c0.2,0,0.4-0.1,0.6-0.3c0.2-0.2,0.3-0.4,0.5-0.7c0.3-0.6,0.5-1.4,0.5-2.4C142.8,53.6,142.5,53.1,142,53.1z"/>
			<path fill="#FFFFFF" stroke="#010101" stroke-width="0.3317" d="M153.2,58.2c-0.5,0.3-1.1,0.6-1.8,0.8c-0.7,0.2-1.4,0.4-2.1,0.4
				c-0.5,0-0.9-0.1-1.2-0.4c-0.3-0.2-0.6-0.5-0.8-0.8c-0.1-0.2-0.2-0.3-0.3-0.5c-0.1-0.2-0.1-0.3-0.2-0.5c0-0.2-0.1-0.3-0.1-0.5
				c0-0.1,0-0.3,0-0.4c0-0.9,0.2-1.7,0.5-2.3c0.1-0.3,0.3-0.6,0.5-0.9c0.2-0.3,0.4-0.5,0.6-0.7c0.5-0.4,1-0.7,1.5-0.9
				c0.5-0.2,1-0.3,1.5-0.3c0.7,0,1.4,0.2,1.9,0.5c0.5,0.3,0.8,0.8,0.8,1.6c0,0.4-0.1,0.8-0.4,1.1c-0.3,0.3-0.6,0.6-1.1,0.8
				c-0.9,0.4-1.9,0.7-3.1,0.6c0,0.1,0,0.2,0,0.4c0,0.2,0,0.4,0.1,0.6c0.1,0.2,0.2,0.3,0.4,0.5c0.2,0.2,0.4,0.2,0.8,0.2
				c0.3,0,0.7-0.1,1-0.2c0.3-0.1,0.6-0.3,0.9-0.4L153.2,58.2z M151.2,52.7c-0.4,0-0.8,0.2-1,0.6c-0.2,0.4-0.4,0.8-0.5,1.4
				c1.5,0,2.2-0.4,2.3-1.2c0-0.2,0-0.4-0.2-0.6C151.6,52.8,151.4,52.7,151.2,52.7z"/>
			<path fill="#FFFFFF" stroke="#010101" stroke-width="0.3317" d="M158.2,52.9L158.2,52.9c0.5-0.5,0.9-0.9,1.4-1.2
				c0.5-0.3,1-0.4,1.4-0.4c1.1,0,1.6,0.5,1.6,1.6c0,0.4,0,0.8-0.1,1.3l-0.9,4.9H159l0.9-4.8c0-0.1,0-0.3,0-0.4
				c0-0.3-0.1-0.5-0.2-0.6c-0.1-0.1-0.2-0.1-0.3-0.1c-0.2,0-0.5,0.1-0.6,0.2c-0.2,0.2-0.4,0.4-0.5,0.6c-0.3,0.5-0.4,1.1-0.5,1.7
				l-0.6,3.4h-2.7l1.4-7.7h2.6L158.2,52.9z"/>
		</g>
		<g>
			<path d="M174.2,60.3h-2.1c-0.8-1-1.7-2.1-2.5-3.2c-0.9-1.1-1.6-2.2-2.1-3.1h0v6.3H165V49.6h2.3c0.8,1,1.6,2.1,2.5,3.2
				c0.9,1.2,1.5,2.1,1.9,2.9h0v-6.1h2.4V60.3z"/>
			<path d="M188,60.3h-3.2v-7.5h0c-0.8,2.7-1.6,5.2-2.4,7.5h-2c-0.8-2.3-1.7-4.8-2.5-7.5h0v7.5h-2.4V49.6h4.3c0.7,2,1.4,4.2,2.1,6.6
				h0c0.7-2.4,1.4-4.6,2.1-6.6h4.2V60.3z"/>
			<path d="M195.1,51.8c-0.4-0.3-0.9-0.4-1.5-0.4c-0.7,0-1,0.2-1,0.7c0,0.1,0.1,0.3,0.2,0.4c0.1,0.2,0.2,0.3,0.4,0.5
				c0.4,0.3,0.8,0.7,1.4,1.2c0.7,0.6,1.1,1.2,1.3,1.7c0.2,0.5,0.3,1,0.3,1.6c0,0.2,0,0.5-0.2,0.9c-0.1,0.4-0.3,0.7-0.6,1.1
				c-0.3,0.3-0.7,0.6-1.2,0.9c-0.5,0.2-1.2,0.4-1.9,0.4c-0.6,0-1.2-0.1-1.8-0.2c-0.6-0.2-1.1-0.4-1.5-0.7l0.9-1.8
				c0.2,0.2,0.5,0.3,0.8,0.5c0.3,0.2,0.6,0.3,1,0.3c0.3,0,0.6-0.1,0.9-0.3c0.3-0.2,0.4-0.4,0.4-0.8c0-0.2-0.1-0.4-0.2-0.6
				c-0.1-0.2-0.2-0.4-0.4-0.5c-0.4-0.3-0.8-0.7-1.2-1.1c-0.6-0.5-1-0.9-1.4-1.3c-0.3-0.4-0.5-0.9-0.5-1.6c0-0.9,0.4-1.6,1.1-2.1
				c0.7-0.5,1.6-0.8,2.6-0.8c0.7,0,1.3,0.1,1.8,0.3c0.5,0.2,0.8,0.3,1,0.5L195.1,51.8z"/>
		</g>
		<g>
			<g>
				<path fill="#010101" d="M197.8,49.7c0.8,0,1.4,0.6,1.4,1.4c0,0.8-0.6,1.4-1.4,1.4c-0.8,0-1.4-0.6-1.4-1.4
					C196.3,50.3,197,49.7,197.8,49.7L197.8,49.7z M197.8,49.9c-0.7,0-1.2,0.5-1.2,1.2c0,0.7,0.5,1.2,1.2,1.2c0.7,0,1.2-0.5,1.2-1.2
					C199,50.5,198.4,49.9,197.8,49.9L197.8,49.9z M197.2,50.3h0.5c0.3,0,0.5,0,0.6,0.1c0.1,0.1,0.2,0.2,0.2,0.4
					c0,0.3-0.2,0.4-0.4,0.5l0.5,0.7h-0.4l-0.4-0.7h-0.2V52h-0.4V50.3z M197.5,51h0.2c0.2,0,0.3-0.1,0.3-0.3c0-0.2-0.2-0.3-0.4-0.3
					h-0.2V51z"/>
			</g>
		</g>
	</g>
</g>
</svg>
